{"title":"Guzaarish (2010) BRrip XviD AC3 - CODY","uid":6106326,"size":1289596097,"categoryP":"video","categoryS":"movies","magnet":"?xt=urn:btih:9483354942602024ec58b66db984453f2b6b840d&amp;dn=Guzaarish+%282010%29+BRrip+XviD+AC3+-+CODY&amp;tr=udp%3A%2F%2Ftracker.openbittorrent.com%3A80&amp;tr=udp%3A%2F%2Fopen.demonii.com%3A1337&amp;tr=udp%3A%2F%2Ftracker.coppersurfer.tk%3A6969&amp;tr=udp%3A%2F%2Fexodus.desync.com%3A6969","seeders":0,"leechers":1,"uploader":"CODYBOSS1969","files":5,"time":1295137099,"description":"\n\n\n\nGeneral\nComplete name                    : Guzaarish (2010) BRrip XviD AC3 - CODY.avi\nFormat                           : AVI\nFormat/Info                      : Audio Video Interleave\nFile size                        : 1.20 GiB\nDuration                         : 2h 6mn\nOverall bit rate                 : 1 362 Kbps\nWriting application              : VirtualDubMod 1.5.10.2 (build 2540/release)\nWriting library                  : VirtualDubMod build 2540/release\n\nVideo\nID                               : 0\nFormat                           : MPEG-4 Visual\nFormat profile                   : Advanced Simple@L5\nFormat settings, BVOP            : Yes\nFormat settings, QPel            : No\nFormat settings, GMC             : No warppoints\nFormat settings, Matrix          : Default (H.263)\nCodec ID                         : XVID\nCodec ID/Hint                    : XviD\nDuration                         : 2h 6mn\nBit rate                         : 905 Kbps\nWidth                            : 720 pixels\nHeight                           : 312 pixels\nDisplay aspect ratio             : 2.35:1\nFrame rate                       : 23.976 fps\nColor space                      : YUV\nChroma subsampling               : 4:2:0\nBit depth                        : 8 bits\nScan type                        : Progressive\nCompression mode                 : Lossy\nBits/(Pixel*Frame)               : 0.168\nStream size                      : 817 MiB (66%)\nWriting library                  : XviD 1.2.0.dev47 (UTC 2006-11-01)\n\n\n\n\nAudio\nID                               : 1\nFormat                           : AC-3\nFormat/Info                      : Audio Coding 3\nMode extension                   : CM (complete main)\nCodec ID                         : 2000\nDuration                         : 2h 6mn\nBit rate mode                    : Constant\nBit rate                         : 448 Kbps\nChannel(s)                       : 6 channels\nChannel positions                : Front: L C R, Side: L R, LFE\nSampling rate                    : 48.0 KHz\nBit depth                        : 16 bits\nCompression mode                 : Lossy\nStream size                      : 404 MiB (33%)\nAlignment                        : Split accross interleaves\nInterleave, duration             : 42 ms (1.00 video frame)\nInterleave, preload duration     : 500 ms\nLanguage                         : Hindi, English [original audio]\n\n\n\n\n\n\nSubtitles included:               Romanian, English\n\n\n\n\n\n[url]http://www.imdb.com/title/tt1438298/[/url]\n","torrent":{"xt":"urn:btih:9483354942602024ec58b66db984453f2b6b840d","amp;dn":"Guzaarish+%282010%29+BRrip+XviD+AC3+-+CODY","amp;tr":["udp%3A%2F%2Ftracker.openbittorrent.com%3A80","udp%3A%2F%2Fopen.demonii.com%3A1337","udp%3A%2F%2Ftracker.coppersurfer.tk%3A6969","udp%3A%2F%2Fexodus.desync.com%3A6969"],"infoHash":"9483354942602024ec58b66db984453f2b6b840d","infoHashBuffer":{"type":"Buffer","data":[148,131,53,73,66,96,32,36,236,88,182,109,185,132,69,63,43,107,132,13]},"announce":[],"urlList":[]}}